<svg width="48" height="60" viewBox="0 0 48 60" fill="none" xmlns="http://www.w3.org/2000/svg">
<path d="M37.6708 13.2201C37.6708 6.00914 31.6616 0 24.1502 0C16.6388 0 10.6296 6.00914 10.6296 13.2201C10.6296 20.4311 16.6388 26.4402 24.1502 26.4402C31.6616 26.4402 37.6708 20.4311 37.6708 13.2201ZM16.6388 13.2201C16.6388 9.31417 19.9438 6.00914 24.1502 6.00914C28.3566 6.00914 31.6616 9.31417 31.6616 13.2201C31.6616 17.1261 28.3566 20.4311 24.1502 20.4311C19.9438 20.4311 16.6388 17.1261 16.6388 13.2201Z" fill="#DD4F4F"/>
<path d="M1.9164 42.365L0.414118 48.0737C-0.487253 50.7778 0.113661 53.7823 1.9164 56.186C3.71915 58.2892 6.1228 59.491 9.12737 59.491H39.1731C41.8772 59.491 44.5813 58.2892 46.0836 55.8855C47.8863 53.4819 48.4873 50.4773 47.5859 47.7732L46.0836 42.0645C44.2809 34.5531 37.6708 29.4453 30.1594 29.4453H18.1411C10.6297 29.4453 4.0196 34.5531 1.9164 42.365ZM6.1228 49.5759L7.62509 43.8672C9.12737 38.7595 13.3338 35.4545 18.1411 35.4545H30.1594C34.9667 35.4545 39.1731 38.7595 40.6754 43.8672L42.1777 49.5759C42.4781 50.4773 42.1777 51.6791 41.5767 52.5805C41.2763 52.881 40.3749 53.4819 39.1731 53.4819H9.12737C7.92555 53.4819 7.32463 52.881 7.02417 52.2801C6.1228 51.6791 5.82235 50.4773 6.1228 49.5759Z" fill="#DD4F4F"/>
</svg>
