<?xml version="1.0" encoding="utf-8"?>
<!-- Svg Vector Icons : http://www.onlinewebfonts.com/icon -->
<!DOCTYPE svg PUBLIC "-//W3C//DTD SVG 1.1//EN" "http://www.w3.org/Graphics/SVG/1.1/DTD/svg11.dtd">
<svg version="1.1" xmlns="http://www.w3.org/2000/svg" xmlns:xlink="http://www.w3.org/1999/xlink" x="0px" y="0px" viewBox="0 0 256 256" enable-background="new 0 0 256 256" xml:space="preserve">
<metadata> Svg Vector Icons : http://www.onlinewebfonts.com/icon </metadata>
<g><g><g><path fill="#000000" d="M33.3,10.7c-2.8,1-5.1,3.1-6.5,6.1c-1.1,2.3-1.3,3.1-1.2,6.3c0.1,4.1,0.8,6.2,3,8.8c2.4,2.7,5.4,3.9,10,3.9c5,0,5.6,0.3,5.6,3.1c0,13.7,7.2,36.6,15.5,49.6c6.8,10.6,18.2,22,33.5,33.6c5.3,4.1,6.4,5.4,5.5,6.9c-0.2,0.4-3.6,3.3-7.5,6.5c-25.3,20.6-34.2,32-41.6,53.7c-3,8.8-5.4,20.7-5.4,27.1c0,3.3-0.8,3.8-5.8,3.8c-4.4,0-7.5,1.2-9.8,3.9c-2.3,2.6-3,4.7-3,8.8c0,3.2,0.1,4.1,1.2,6.3c0.7,1.5,2.1,3.2,3.1,4.1c3.7,2.9-3.5,2.8,98.2,2.8c101.6,0,94.5,0.2,98.2-2.8c1-0.8,2.4-2.5,3.1-4.1c1.1-2.3,1.3-3.1,1.2-6.3c-0.1-4.1-0.8-6.2-3-8.8c-2.3-2.6-4.6-3.5-9.6-4c-5.8-0.4-5.8-0.4-6.1-8.6c-0.9-18.4-6.8-34.2-19.1-50.4c-7.1-9.4-16.1-18.4-27.2-27c-7.5-5.8-7.6-6.6-1.6-10.9c18.8-13.3,35.7-34.3,42.7-52.9c3.4-8.9,4.9-17.2,5.2-27c0.1-5.4,0.3-6.5,1-7.1c0.5-0.3,2.3-0.6,4.7-0.6c4.7,0,7.7-1.2,10.1-3.9c2.3-2.6,2.9-4.7,3-8.8c0-3.2-0.1-4.1-1.2-6.3c-0.7-1.5-2.1-3.3-3-4.1c-3.6-3,3.5-2.8-98.5-2.7C48.6,10,34.8,10.2,33.3,10.7z M200,36.8c1,1,1,1.3,0.7,8.4c-0.3,7.8-1,12.1-3.3,19c-4.1,12.3-13,25.9-24.4,37.3c-6.7,6.7-11.3,10.6-19.1,15.9c-3.2,2.2-5.6,4.1-5.9,4.8c-0.7,1.5-0.7,10.6-0.1,11.8c0.2,0.5,3.1,2.7,6.3,4.9c7.1,4.8,11.4,8.3,17.3,13.9c8.8,8.4,17.1,19.7,22.1,29.8c5,10.3,6.8,17.4,7.2,28.1c0.2,7.2,0.2,7.4-0.8,8.3s-1.8,0.9-71.3,1.1c-62,0.1-70.4,0-71.9-0.6l-1.7-0.7l0.3-5.4c0.5-9.8,5.7-26.9,11.2-37c7.6-13.6,18.5-24.8,35.9-36.6c4.5-3,6.5-4.7,6.7-5.4c0.2-0.6,0.3-3.4,0.4-6.2c0-6.9-0.2-7.4-6.9-11.9c-9.5-6.5-14-10.1-20.7-16.9c-11-11-16.5-19.8-21.7-35c-3-8.6-4.6-15.7-4.9-21.8c-0.3-5.3-0.2-5.3,0.8-6.1c1-0.7,6.8-0.8,72-0.8H199L200,36.8z"/><path fill="#000000" d="M100.6,90.2c-0.1,0.3-0.2,0.8,0,1.3c0.5,1.4,24.8,25.4,26.2,25.7c0.7,0.2,1.8,0.2,2.5,0c1.8-0.4,26.5-25.2,26.3-26.3c-0.1-0.8-1.2-0.9-27.4-1C110,89.8,100.8,89.9,100.6,90.2z"/><path fill="#000000" d="M125.3,143.5c-3.2,3.1-47.5,59.1-47.5,60.1c0,0.6,0.5,1.1,1.2,1.3c1.6,0.6,96.5,0.6,98.1,0c0.7-0.3,1.2-0.8,1.2-1.3c0-1-44.8-57.5-47.7-60.3C128.5,141.4,127.4,141.4,125.3,143.5z"/></g></g></g>
</svg>