<svg width="24" height="22" viewBox="0 0 24 22" fill="none" xmlns="http://www.w3.org/2000/svg">
<path d="M23.214 8.94478C23.214 9.15774 23.0933 9.3708 22.8518 9.58376L17.7877 14.0558L18.9867 20.551C18.996 20.551 19.0006 20.6576 19.0006 20.7641C19.0006 20.977 18.9496 21.0834 18.8474 21.1899C18.7546 21.2964 18.6153 21.4029 18.4284 21.4029C18.252 21.4029 18.0663 21.4029 17.8713 21.2965L11.607 18.2085L5.34316 21.2965C5.13853 21.4029 4.95247 21.4029 4.78509 21.4029C4.58975 21.4029 4.44095 21.2964 4.33869 21.1899C4.2456 21.0834 4.19917 20.977 4.19917 20.7641C4.19917 20.7641 4.20846 20.6575 4.22703 20.551L5.42684 14.0558L0.34879 9.58376C0.116302 9.3708 0 9.15774 0 8.94478C0 8.62534 0.260461 8.41238 0.781266 8.41238L7.78445 7.45418L10.9233 1.59783C11.0998 1.27839 11.3284 1.06543 11.607 1.06543C11.8855 1.06543 12.1142 1.27839 12.2906 1.59783L15.4292 7.45418L22.4328 8.41238C22.954 8.41238 23.214 8.62534 23.214 8.94478Z" fill="#E67E22"/>
<path d="M23.214 7.87935C23.214 8.09231 23.0933 8.30537 22.8518 8.51833L17.7877 12.9904L18.9867 19.4856C18.996 19.4856 19.0006 19.5922 19.0006 19.6986C19.0006 19.9116 18.9496 20.018 18.8474 20.1244C18.7546 20.2309 18.6153 20.3375 18.4284 20.3375C18.252 20.3375 18.0663 20.3375 17.8713 20.231L11.607 17.1431L5.34316 20.231C5.13853 20.3375 4.95247 20.3375 4.78509 20.3375C4.58975 20.3375 4.44095 20.2309 4.33869 20.1244C4.2456 20.018 4.19917 19.9116 4.19917 19.6986C4.19917 19.6986 4.20846 19.5921 4.22703 19.4856L5.42684 12.9904L0.34879 8.51833C0.116302 8.30537 0 8.09231 0 7.87935C0 7.55991 0.260461 7.34695 0.781266 7.34695L7.78445 6.38875L10.9233 0.532395C11.0998 0.212958 11.3284 0 11.607 0C11.8855 0 12.1142 0.212958 12.2906 0.532395L15.4292 6.38875L22.4328 7.34695C22.954 7.34695 23.214 7.55991 23.214 7.87935Z" fill="#F1C40F"/>
</svg>
