<svg width="145" height="145" viewBox="0 0 145 145" fill="none" xmlns="http://www.w3.org/2000/svg">
<circle cx="72.5" cy="72.5" r="72" fill="white" stroke="#6F6F6F"/>
<circle cx="72.5" cy="72.5" r="63" fill="#805C4A" stroke="#444141"/>
<path d="M31.585 48.693L35.162 49.526C33.545 54.769 30.997 60.11 28.302 63.589C27.665 63.001 26.097 61.972 25.215 61.482C27.959 58.297 30.262 53.446 31.585 48.693ZM31.144 53.838H45.942V57.023H29.527L31.144 53.838ZM28.547 82.895H47.314V85.835H28.057L28.547 82.895ZM29.87 60.747H33.104C32.32 69.322 31.046 81.033 29.968 87.697L26.734 87.256C27.861 80.592 29.233 69.028 29.87 60.747ZM31.144 60.747H43.149V63.589H31.144V60.747ZM46.873 54.475H70.295V57.66H46.873V54.475ZM25.362 71.723H47.951V74.663H25.362V71.723ZM41.875 60.747H45.158C45.158 60.747 45.158 62.021 45.109 62.511C44.423 82.699 43.688 89.461 42.169 91.47C41.287 92.695 40.405 93.038 39.082 93.185C37.906 93.332 36.093 93.332 34.182 93.185C34.133 92.254 33.79 90.931 33.3 90C35.211 90.196 36.877 90.196 37.71 90.196C38.445 90.196 38.837 90.098 39.278 89.461C40.503 87.893 41.238 81.033 41.875 61.531V60.747ZM34.476 65.5L36.583 64.716C37.808 66.333 38.886 68.538 39.327 70.008L36.975 70.939C36.632 69.42 35.554 67.166 34.476 65.5ZM33.594 76.476L35.75 75.594C37.122 77.309 38.396 79.661 38.935 81.229L36.534 82.209C36.142 80.592 34.868 78.191 33.594 76.476ZM56.526 49.036H60.054V56.386H56.526V49.036ZM56.477 71.478H59.368V92.058H56.477V71.478ZM54.027 56.778L57.408 57.611C55.889 61.041 54.027 65.059 52.459 67.607L49.617 66.823C51.136 64.128 53.047 59.718 54.027 56.778ZM46.873 65.353C51.969 65.255 59.809 65.01 67.502 64.667L67.453 67.656C60.054 68.048 52.459 68.391 47.118 68.636L46.873 65.353ZM61.034 60.894L63.827 59.571C66.718 62.462 69.707 66.48 70.883 69.273L67.845 70.792C66.767 67.95 63.827 63.883 61.034 60.894ZM49.96 71.037H52.998V77.652C52.998 83.238 52.459 89.265 47.51 93.969C46.971 93.332 45.795 92.352 44.962 91.911C49.47 87.746 49.96 82.356 49.96 77.603V71.037ZM62.945 70.988H65.983V88.873C65.983 89.902 66.032 90.539 66.13 90.735C66.277 90.882 66.424 90.98 66.669 90.98C66.865 90.98 67.257 90.98 67.551 90.98C67.796 90.98 68.09 90.931 68.237 90.784C68.384 90.588 68.531 90.245 68.629 89.608C68.678 88.775 68.727 87.158 68.776 85.1C69.364 85.541 70.295 86.031 71.079 86.227C71.03 88.236 70.883 90.637 70.638 91.47C70.442 92.303 70.05 92.842 69.511 93.185C69.07 93.479 68.384 93.626 67.698 93.626C67.208 93.626 66.424 93.626 65.983 93.626C65.15 93.626 64.317 93.43 63.729 92.842C63.141 92.254 62.945 91.47 62.945 88.383V70.988ZM93.423 51.045H103.125V54.377H93.423V51.045ZM90.189 81.768C92.737 80.053 96.559 77.309 100.234 74.516L101.655 77.456C98.47 79.955 95.04 82.65 92.149 84.757L90.189 81.768ZM93.717 60.992L96.412 59.914C98.176 62.658 99.744 66.333 100.332 68.832L97.441 70.057C96.951 67.509 95.334 63.785 93.717 60.992ZM104.889 80.788C107.241 79.22 110.72 76.574 114.15 73.928L115.571 76.868C112.68 79.269 109.495 81.719 106.8 83.777L104.889 80.788ZM106.653 60.845L109.348 59.669C111.161 62.413 112.876 66.039 113.464 68.489L110.573 69.714C109.936 67.264 108.368 63.54 106.653 60.845ZM101.606 51.045H104.938V89.363C104.938 91.519 104.497 92.646 103.076 93.234C101.606 93.822 99.205 93.871 95.53 93.871C95.383 92.989 94.795 91.323 94.305 90.392C97.147 90.49 99.744 90.441 100.577 90.392C101.312 90.392 101.606 90.147 101.606 89.363V51.045ZM106.408 51.045H116.551V54.377H106.408V51.045ZM114.591 51.045H118.021V89.363C118.021 91.47 117.58 92.597 116.159 93.185C114.787 93.773 112.435 93.871 108.858 93.871C108.76 92.94 108.172 91.274 107.682 90.294C110.377 90.392 112.827 90.343 113.611 90.343C114.346 90.343 114.591 90.098 114.591 89.363V51.045ZM75.048 58.444H92.737V61.727H75.048V58.444ZM75.783 67.656H92.296V70.89H75.783V67.656ZM74.215 78.583C78.821 77.799 85.877 76.427 92.639 75.104L92.884 78.289C86.563 79.661 79.948 80.984 74.999 81.964L74.215 78.583ZM76.322 50.114L79.36 49.134C80.683 51.731 81.957 55.014 82.349 57.219L79.164 58.346C78.772 56.092 77.596 52.662 76.322 50.114ZM89.013 48.84L92.541 49.918C91.365 52.809 90.091 56.19 88.964 58.346L86.122 57.366C87.151 55.063 88.425 51.388 89.013 48.84ZM82.349 59.277H85.926V73.487C85.926 80.445 84.848 89.02 77.008 93.92C76.469 93.136 75.391 91.911 74.607 91.225C81.81 87.158 82.349 79.318 82.349 73.487V59.277Z" fill="white"/>
</svg>
