<svg width="45" height="38" viewBox="0 0 45 38" fill="none" xmlns="http://www.w3.org/2000/svg">
<path d="M30.2 35.8405V32.0805C30.2 30.0861 29.4077 28.1734 27.9974 26.7631C26.5872 25.3528 24.6744 24.5605 22.68 24.5605H9.52C7.52557 24.5605 5.61283 25.3528 4.20256 26.7631C2.79228 28.1734 2 30.0861 2 32.0805V35.8405" stroke="#51392D" stroke-width="3" stroke-linecap="round" stroke-linejoin="round"/>
<path d="M16.1001 17.04C20.2533 17.04 23.6201 13.6732 23.6201 9.52C23.6201 5.36682 20.2533 2 16.1001 2C11.9469 2 8.58008 5.36682 8.58008 9.52C8.58008 13.6732 11.9469 17.04 16.1001 17.04Z" stroke="#51392D" stroke-width="3" stroke-linecap="round" stroke-linejoin="round"/>
<path d="M37.72 11.4004V22.6804" stroke="#51392D" stroke-width="3" stroke-linecap="round" stroke-linejoin="round"/>
<path d="M43.3601 17.04H32.0801" stroke="#51392D" stroke-width="3" stroke-linecap="round" stroke-linejoin="round"/>
</svg>
